# Rhino

mtllib objTest_01_sphere.mtl
usemtl diffuse_Black
v 1.6099891662597656 -1.7685449123382568 -0.87928217649459839
v 1.7166365385055542 -1.780052661895752 0.51242011785507202
v 0.8107450008392334 -2.4478309154510498 0.42261627316474915
v 1.608443021774292 1.7851366996765137 -0.69007086753845215
v 1.6395788192749023 1.8212703466415405 0.62011039257049561
v 2.3107261657714844 1.0092537403106689 0.3269161581993103
v 0.68615812063217163 2.3229579925537109 -0.65373659133911133
v 0.62576031684875488 2.4701583385467529 0.52804362773895264
v 1.4011728763580322 -0.54744911193847656 -2.0890381336212158
v 2.4673929214477539 -0.67432618141174316 -0.30710345506668091
v 2.2578499317169189 0.51808249950408936 -1.0170592069625854
v 0.73500758409500122 1.821510910987854 -1.5871402025222778
v 1.3632392883300781 0.96078002452850342 -1.9251644611358643
v 0.21081282198429108 -1.8041607141494751 -1.752615213394165
v 0.59272438287734985 -2.2874374389648438 -0.86971944570541382
v 0.029287721961736679 2.3237004280090332 -0.94762307405471802
v 0.62576031684875488 2.4701583385467529 0.52804362773895264
v -0.049967892467975616 -2.3054342269897461 -0.98753738403320313
v 0.8107450008392334 -2.4478309154510498 0.42261627316474915
v 0.061414625495672226 -0.4992423951625824 -2.4929835796356201
v 0 0.98568892478942871 -2.297480583190918
v -0.61437308788299561 1.8215378522872925 -1.6399309635162354
v -0.90228348970413208 -1.7877649068832397 -1.5680502653121948
v -0.89068365097045898 -0.45909631252288818 -2.3476986885070801
v -1.3823902606964111 1.0333842039108276 -1.8471407890319824
v -0.65838634967803955 2.3228082656860352 -0.68529212474822998
v 0.62576031684875488 2.4701583385467529 0.52804362773895264
v -0.86934828758239746 -2.2863337993621826 -0.58052527904510498
v 0.8107450008392334 -2.4478309154510498 0.42261627316474915
v -2.1122372150421143 -0.47183644771575928 -1.4222093820571899
v -1.5867969989776611 1.8214415311813354 -0.7356000542640686
v -1.752615213394165 -1.8041607141494751 -0.21081282198429108
v -2.2792603969573975 1.0642073154449463 -0.39488676190376282
v -0.95033556222915649 2.3220949172973633 -0.02555270679295063
v 0.62576031684875488 2.4701583385467529 0.52804362773895264
v -0.98753738403320313 -2.3054342269897461 0.049967892467975616
v 0.8107450008392334 -2.4478309154510498 0.42261627316474915
v -2.4641244411468506 -0.55021888017654419 -0.020152674987912178
v -1.6399319171905518 1.8216826915740967 0.61405909061431885
v -1.6405267715454102 -1.7502248287200928 0.70383578538894653
v -2.1269104480743408 -0.945293128490448 0.91250914335250854
v -0.68399101495742798 2.3228960037231445 0.65635532140731812
v 0.62576031684875488 2.4701583385467529 0.52804362773895264
v -0.58052527904510498 -2.2863337993621826 0.86934828758239746
v 0.8107450008392334 -2.4478309154510498 0.42261627316474915
v -1.2500300407409668 -1.3713095188140869 1.7332415580749512
v -1.4001052379608154 -0.1200689896941185 2.1217954158782959
v -2.3000724315643311 0.41650253534317017 0.98220187425613403
v -0.66096961498260498 1.8560985326766968 1.6210236549377441
v -1.608443021774292 0.98568892478942871 1.6405267715454102
v -0.21081282198429108 -1.8041607141494751 1.752615213394165
v -0.30476123094558716 1.0206555128097534 2.3052022457122803
v -0.029287721961736679 2.3237004280090332 0.94762307405471802
v 0.62576031684875488 2.4701583385467529 0.52804362773895264
v 0.049967892467975616 -2.3054342269897461 0.98753738403320313
v 0.8107450008392334 -2.4478309154510498 0.42261627316474915
v 0.30202731490135193 -0.69946920871734619 2.4616408348083496
v 0.85027092695236206 -1.7628060579299927 1.6184350252151489
v 0.75976228713989258 1.8193299770355225 1.5736626386642456
v 0.62576031684875488 2.4701583385467529 0.52804362773895264
v 2.1030309200286865 -0.42762386798858643 1.4261996746063232
v 0.97871702909469604 0.43614333868026733 2.2958216667175293
v 1.7166365385055542 -1.780052661895752 0.51242011785507202
v 0.8107450008392334 -2.4478309154510498 0.42261627316474915
v 2.3107261657714844 1.0092537403106689 0.3269161581993103
v 1.6405267715454102 0.98568892478942871 1.608443021774292
v 1.6395788192749023 1.8212703466415405 0.62011039257049561
v 2.4673929214477539 -0.67432618141174316 -0.30710345506668091
vt 0.082513883709907532 0.25078517198562622
vt -0.046081904321908951 0.23429197072982788
vt -0.04503839835524559 0.080033175647258759
vt 0.064502224326133728 0.75314325094223022
vt -0.056151594966650009 0.77730578184127808
vt -0.02450994960963726 0.634632408618927
vt 0.12177114188671112 0.8793022632598877
vt -0.053573038429021835 0.9355582594871521
vt 0.15580038726329803 0.43061339855194092
vt 0.020673122256994247 0.41439512372016907
vt 0.067709758877754211 0.56591838598251343
vt 0.18052804470062256 0.75973367691040039
vt 0.15303544700145721 0.62553596496582031
vt 0.22796638309955597 0.24380789697170258
vt 0.15685108304023743 0.13280603289604187
vt 0.24580252170562744 0.87916254997253418
vt 0.053763836622238159 1.02942955493927
vt 0.25739312171936035 0.12628975510597229
vt 0.044497806578874588 -0.025189643725752831
vt 0.24577189981937408 0.43719229102134705
vt 0.25 0.62900447845458984
vt 0.30682939291000366 0.75977528095245361
vt 0.33616119623184204 0.24696093797683716
vt 0.30620718002319336 0.44223719835281372
vt 0.35132953524589539 0.63580209016799927
vt 0.37244531512260437 0.87894725799560547
vt 0.25092539191246033 1.0949089527130127
vt 0.40825843811035156 0.13261452317237854
vt 0.22043883800506592 -0.10237789154052734
vt 0.40546533465385437 0.44094625115394592
vt 0.43047448992729187 0.75972849130630493
vt 0.47796636819839478 0.24380789697170258
vt 0.47137385606765747 0.63990920782089233
vt 0.49626126885414124 0.87869960069656372
vt 0.48116010427474976 1.1034684181213379
vt 0.50739312171936035 0.12628975510597229
vt 0.44954222440719604 -0.11333565413951874
vt 0.49902623891830444 0.43014341592788696
vt 0.55680471658706665 0.75980198383331299
vt 0.56450223922729492 0.25314322113990784
vt 0.56450223922729492 0.37657162547111511
vt 0.62226039171218872 0.87908089160919189
vt 0.69027525186538696 1.0514395236968994
vt 0.65825843811035156 0.13261452317237854
vt 0.68247288465499878 -0.066745653748512268
vt 0.65195190906524658 0.31737500429153442
vt 0.65698546171188354 0.48418647050857544
vt 0.56457352638244629 0.55248153209686279
vt 0.68817979097366333 0.76600277423858643
vt 0.62657159566879272 0.62900447845458984
vt 0.72796636819839478 0.24380789697170258
vt 0.72777003049850464 0.63406789302825928
vt 0.74580252170562744 0.87916254997253418
vt 0.82276350259780884 0.96897697448730469
vt 0.75739312171936035 0.12628975510597229
vt 0.83277958631515503 0.027605649083852768
vt 0.77072376012802124 0.4100479781627655
vt 0.82988786697387695 0.25147053599357605
vt 0.82186335325241089 0.76002949476242065
vt 0.88447701930999756 0.90322691202163696
vt 0.90509557723999023 0.44625452160835266
vt 0.81398683786392212 0.55491024255752563
vt 0.95277929306030273 0.25079110264778137
vt 0.91704726219177246 0.10636455565690994
vt 0.97707259654998779 0.6318516731262207
vt 0.87657159566879272 0.62900447845458984
vt 0.94259709119796753 0.75615459680557251
vt 1.0206061601638794 0.41302791237831116
vn 0.62964308261871338 -0.6940193772315979 -0.34912270307540894
vn 0.68334007263183594 -0.70481884479522705 0.19046470522880554
vn 0.31420555710792542 -0.93577706813812256 0.15998804569244385
vn 0.64337724447250366 0.71405470371246338 -0.27602836489677429
vn 0.65537500381469727 0.72060412168502808 0.22630356252193451
vn 0.9102787971496582 0.39507150650024414 0.12373746931552887
vn 0.27390792965888977 0.92590320110321045 -0.26014935970306396
vn 0.25072973966598511 0.94722718000411987 0.19973810017108917
vn 0.54349440336227417 -0.2126108705997467 -0.81204092502593994
vn 0.95634448528289795 -0.26309913396835327 -0.12721686065196991
vn 0.89259219169616699 0.20417077839374542 -0.40198692679405212
vn 0.29351729154586792 0.7212633490562439 -0.62739682197570801
vn 0.53375279903411865 0.3772256076335907 -0.75684136152267456
vn 0.085143677890300751 -0.71438592672348022 -0.69455260038375854
vn 0.23555941879749298 -0.90905666351318359 -0.34369716048240662
vn 0.012216485105454922 0.92592829465866089 -0.37750178575515747
vn 0.23445071280002594 0.95203030109405518 0.19664974510669708
vn -0.020565692335367203 -0.91905337572097778 -0.39359620213508606
vn 0.30339232087135315 -0.93971234560012817 0.15777771174907684
vn 0.023661376908421516 -0.19568414986133575 -0.98038148880004883
vn 0 0.39427557587623596 -0.91899228096008301
vn -0.24055391550064087 0.72084641456604004 -0.65001094341278076
vn -0.35865494608879089 -0.70303618907928467 -0.61409014463424683
vn -0.34933221340179443 -0.1787409633398056 -0.91979271173477173
vn -0.5455358624458313 0.40818208456039429 -0.73196858167648315
vn -0.26183682680130005 0.92555397748947144 -0.27347996830940247
vn 0.2196308970451355 0.95721107721328735 0.18843892216682434
vn -0.34490814805030823 -0.90977805852890015 -0.23095937073230743
vn 0.27744013071060181 -0.95032155513763428 0.14112381637096405
vn -0.81673407554626465 -0.1810951828956604 -0.54785948991775513
vn -0.62728148698806763 0.72126412391662598 -0.29376181960105896
vn -0.69455260038375854 -0.71438592672348022 -0.085143677890300751
vn -0.89507406949996948 0.41725918650627136 -0.15728053450584412
vn -0.37868881225585938 0.92546135187149048 -0.010772427543997765
vn 0.21151649951934814 0.95792549848556519 0.1940089613199234
vn -0.39359620213508606 -0.91905337572097778 0.020565692335367203
vn 0.26974406838417053 -0.95131182670593262 0.14914391934871674
vn -0.97622424364089966 -0.21663039922714233 -0.0075862808153033257
vn -0.65000408887863159 0.72089689970016479 0.24042125046253204
vn -0.65621072053909302 -0.70008993148803711 0.28153431415557861
vn -0.85076415538787842 -0.37811726331710815 0.36500364542007446
vn -0.27303618192672729 0.92586040496826172 0.26121589541435242
vn 0.22204828262329102 0.95329052209854126 0.20477242767810822
vn -0.23095937073230743 -0.90977805852890015 0.34490814805030823
vn 0.28462162613868713 -0.94471460580825806 0.16280309855937958
vn -0.49239936470985413 -0.53932094573974609 0.6831367015838623
vn -0.5501406192779541 -0.046850547194480896 0.83375674486160278
vn -0.90690845251083374 0.16482597589492798 0.38774916529655457
vn -0.2584095299243927 0.72744566202163696 0.63564717769622803
vn -0.64337724447250366 0.39427557587623596 0.65621072053909302
vn -0.085143677890300751 -0.71438592672348022 0.69455260038375854
vn -0.12204192578792572 0.40130025148391724 0.90777963399887085
vn -0.012216485105454922 0.92592829465866089 0.37750178575515747
vn 0.24103410542011261 0.94841295480728149 0.20594996213912964
vn 0.020565692335367203 -0.91905337572097778 0.39359620213508606
vn 0.30674594640731812 -0.93723177909851074 0.16584189236164093
vn 0.12140253931283951 -0.27054435014724731 0.95502209663391113
vn 0.3393324613571167 -0.6929815411567688 0.63610535860061646
vn 0.30399700999259949 0.72122353315353394 0.62243270874023438
vn 0.23856647312641144 0.95025396347045898 0.20025856792926788
vn 0.81690365076065063 -0.16632102429866791 0.55227327346801758
vn 0.38654032349586487 0.17232714593410492 0.90602976083755493
vn 0.67922019958496094 -0.70505475997924805 0.20385710895061493
vn 0.31024014949798584 -0.93755984306335449 0.15726590156555176
vn 0.90783989429473877 0.3976215124130249 0.1331309974193573
vn 0.65621072053909302 0.39427557587623596 0.64337724447250366
vn 0.64842861890792847 0.72053879499435425 0.24569129943847656
vn 0.96038538217544556 -0.25619405508041382 -0.10965648293495178
f 1/1/1 2/2/2 3/3/3
f 4/4/4 5/5/5 6/6/6
f 8/8/8 5/5/5 7/7/7
f 9/9/9 10/10/10 1/1/1
f 9/9/9 11/11/11 10/10/10
f 12/12/12 4/4/4 13/13/13
f 14/14/14 1/1/1 15/15/15
f 16/16/16 7/7/7 12/12/12
f 17/17/17 7/7/7 16/16/16
f 18/18/18 15/15/15 19/19/19
f 20/20/20 9/9/9 14/14/14
f 13/13/13 9/9/9 20/20/20
f 22/22/22 12/12/12 21/21/21
f 23/23/23 14/14/14 18/18/18
f 20/20/20 14/14/14 24/24/24
f 25/25/25 21/21/21 24/24/24
f 26/26/26 16/16/16 22/22/22
f 27/27/27 16/16/16 26/26/26
f 28/28/28 18/18/18 29/29/29
f 30/30/30 24/24/24 23/23/23
f 31/31/31 22/22/22 25/25/25
f 32/32/32 23/23/23 28/28/28
f 33/33/33 25/25/25 30/30/30
f 34/34/34 26/26/26 31/31/31
f 35/35/35 26/26/26 34/34/34
f 36/36/36 28/28/28 37/37/37
f 38/38/38 30/30/30 32/32/32
f 39/39/39 31/31/31 33/33/33
f 40/40/40 32/32/32 36/36/36
f 38/38/38 32/32/32 41/41/41
f 42/42/42 34/34/34 39/39/39
f 43/43/43 34/34/34 42/42/42
f 44/44/44 36/36/36 45/45/45
f 46/46/46 40/40/40 44/44/44
f 47/47/47 48/48/48 41/41/41
f 49/49/49 39/39/39 50/50/50
f 51/51/51 46/46/46 44/44/44
f 52/52/52 50/50/50 47/47/47
f 53/53/53 42/42/42 49/49/49
f 54/54/54 42/42/42 53/53/53
f 55/55/55 44/44/44 56/56/56
f 57/57/57 46/46/46 51/51/51
f 58/58/58 51/51/51 55/55/55
f 59/59/59 49/49/49 52/52/52
f 60/60/60 53/53/53 59/59/59
f 61/61/61 57/57/57 58/58/58
f 61/61/61 62/62/62 57/57/57
f 63/63/63 58/58/58 64/64/64
f 65/65/65 66/66/66 61/61/61
f 67/67/67 59/59/59 66/66/66
f 68/68/68 61/61/61 63/63/63
f 10/10/10 2/2/2 1/1/1
f 6/6/6 10/10/10 11/11/11
f 4/4/4 6/6/6 11/11/11
f 1/1/1 3/3/3 15/15/15
f 13/13/13 11/11/11 9/9/9
f 4/4/4 11/11/11 13/13/13
f 7/7/7 4/4/4 12/12/12
f 9/9/9 1/1/1 14/14/14
f 14/14/14 15/15/15 18/18/18
f 12/12/12 13/13/13 21/21/21
f 16/16/16 12/12/12 22/22/22
f 21/21/21 20/20/20 24/24/24
f 22/22/22 21/21/21 25/25/25
f 23/23/23 18/18/18 28/28/28
f 25/25/25 24/24/24 30/30/30
f 26/26/26 22/22/22 31/31/31
f 30/30/30 23/23/23 32/32/32
f 31/31/31 25/25/25 33/33/33
f 32/32/32 28/28/28 36/36/36
f 33/33/33 30/30/30 38/38/38
f 34/34/34 31/31/31 39/39/39
f 48/48/48 38/38/38 41/41/41
f 33/33/33 38/38/38 48/48/48
f 39/39/39 33/33/33 48/48/48
f 40/40/40 36/36/36 44/44/44
f 41/41/41 40/40/40 46/46/46
f 47/47/47 41/41/41 46/46/46
f 50/50/50 48/48/48 47/47/47
f 39/39/39 48/48/48 50/50/50
f 42/42/42 39/39/39 49/49/49
f 49/49/49 50/50/50 52/52/52
f 51/51/51 44/44/44 55/55/55
f 47/47/47 46/46/46 57/57/57
f 52/52/52 47/47/47 57/57/57
f 57/57/57 51/51/51 58/58/58
f 52/52/52 57/57/57 62/62/62
f 59/59/59 52/52/52 62/62/62
f 53/53/53 49/49/49 59/59/59
f 58/58/58 55/55/55 64/64/64
f 66/66/66 62/62/62 61/61/61
f 59/59/59 62/62/62 66/66/66
f 61/61/61 58/58/58 63/63/63
f 67/67/67 66/66/66 65/65/65
f 60/60/60 59/59/59 67/67/67
f 65/65/65 61/61/61 68/68/68
f 5/5/5 4/4/4 7/7/7
f 13/13/13 20/20/20 21/21/21
f 14/14/14 23/23/23 24/24/24
f 32/32/32 40/40/40 41/41/41
